<svg width="711" height="318" viewBox="0 0 711 318" fill="none" xmlns="http://www.w3.org/2000/svg">
<path d="M235.409 316.774C232.922 316.774 229.368 316.175 226.593 313.331C223.939 310.603 222.589 306.444 222.589 300.977V298.629C222.589 298.629 214.754 316.774 197.399 316.774C186.668 316.774 179.173 308.902 179.173 297.626V257.788C179.173 250.936 177.442 244.914 174.494 241.344C181.51 240.883 188.976 238.737 195.31 235.363V294.476C195.31 298.266 196.516 301.478 198.813 303.768C200.89 305.845 203.699 306.992 206.711 306.992C211.252 306.992 215.411 304.558 218.117 300.319C220.956 295.895 222.583 289.355 222.583 282.376V257.8C222.583 250.757 220.956 244.857 218.083 241.338C225.104 240.877 232.576 238.731 238.911 235.357V297.083C238.911 306.646 243.313 309.103 246.428 309.64C244.888 313.049 241.749 316.78 235.409 316.78V316.774Z" fill="white"/>
<path d="M287.399 316.768C283.971 316.768 278.744 315.286 274.688 313.169C272.427 312.01 269.225 310.989 265.607 310.989C259.757 310.989 255.539 313.757 251.633 315.915V228.989C251.639 221.929 249.966 216.029 247.018 212.528C254.097 212.072 261.395 209.967 267.794 206.541V250.549C267.794 250.549 276.338 234.445 293.007 234.445C299.318 234.445 304.615 236.481 309.196 240.669C316.194 247.198 320.371 259.287 320.371 272.997C320.556 285.149 316.956 297.141 310.736 305.089C304.869 312.725 296.803 316.762 287.41 316.762L287.399 316.768ZM284.387 242.376C284.22 242.376 284.052 242.376 283.879 242.382C275.756 242.589 267.782 252.643 267.782 262.344V292.63C267.782 303.335 276.085 314.744 289.101 314.744C289.822 314.744 290.56 314.686 291.281 314.571C297.091 313.677 301.263 309.374 303.686 301.778C305.734 295.041 306.317 285.063 305.284 274.404C304.338 267.073 302.261 256.957 297.726 250.278C294.339 245.104 289.724 242.365 284.387 242.365V242.376Z" fill="white"/>
<path d="M669.267 316.804C662.067 316.804 654.964 314.877 648.716 311.238C639.173 305.816 632.348 296.997 629.498 286.402C626.636 275.784 628.119 264.704 633.657 255.21C641.008 242.492 654.647 234.59 669.255 234.59C676.45 234.59 683.587 236.517 689.893 240.162C709.475 251.403 716.225 276.539 704.946 296.196C697.601 308.913 683.933 316.809 669.273 316.809L669.267 316.804ZM657.128 239.349C654.289 239.349 651.699 240.012 649.425 241.327C638.256 247.781 638.065 268.476 648.999 287.457C657.468 302.159 670.519 312.045 681.475 312.045C684.314 312.045 686.904 311.382 689.178 310.067C700.336 303.601 700.526 282.912 689.604 263.937C681.129 249.229 668.078 239.349 657.128 239.349Z" fill="white"/>
<path d="M0.000200272 316.758C2.98305 313.09 4.66775 307.218 4.67352 300.389L4.67352 222.092C4.67352 215.252 2.98882 209.38 0.00597544 205.712C13.8355 205.712 30.3595 205.712 43.6063 205.729C57.0378 205.729 68.0287 211.134 75.3964 221.354C82.3891 231.055 86.0816 244.852 86.0816 261.244C86.0816 277.635 82.3833 291.432 75.3906 301.133C68.0229 311.354 57.032 316.752 43.6063 316.752H0.000200272L0.000200272 316.758ZM21.9533 315.322H34.8539C45.8968 315.322 54.4011 310.754 60.1302 301.745C65.894 292.678 68.8191 279.049 68.8191 261.238C68.8191 243.421 65.8998 229.792 60.136 220.731C54.4069 211.722 45.9026 207.148 34.8539 207.148H21.9533L21.9475 315.328L21.9533 315.322Z" fill="white"/>
<path d="M131.112 316.769C123.912 316.769 116.81 314.842 110.561 311.203C101.019 305.776 94.1932 296.957 91.343 286.361C88.4871 275.743 89.9641 264.669 95.5028 255.175C102.853 242.457 116.492 234.556 131.101 234.556C138.295 234.556 145.427 236.482 151.738 240.127C171.32 251.369 178.071 276.504 166.791 296.161C159.447 308.879 145.779 316.775 131.118 316.775L131.112 316.769ZM118.973 239.314C116.135 239.314 113.544 239.977 111.271 241.292C100.107 247.746 99.9108 268.441 110.844 287.423C119.308 302.125 132.364 312.01 143.321 312.01C146.159 312.01 148.75 311.347 151.023 310.032C162.181 303.566 162.372 282.878 151.45 263.902C142.975 249.194 129.924 239.314 118.973 239.314Z" fill="white"/>
<path d="M340.573 316.768C336.956 316.768 333.915 315.58 331.78 313.331C329.225 310.632 327.926 306.473 327.926 300.959V229.595L327.938 229.03C327.938 222.166 326.201 216.139 323.247 212.563C330.35 212.113 337.671 210.014 344.087 206.57V297.054C344.081 301.046 344.9 304.183 346.516 306.381C347.814 308.146 349.626 309.259 351.783 309.622C350.231 313.031 347.052 316.768 340.562 316.768H340.573Z" fill="white"/>
<path d="M578.023 316.779C580.729 313.365 582.338 307.932 582.511 301.564L582.523 300.993V300.416L582.535 257.724C582.535 250.687 580.908 244.787 578.029 241.263C585.056 240.801 592.539 238.65 598.88 235.27V253.836L601.032 250.133C606.87 240.086 614.296 234.664 620.902 234.664C623.948 234.664 626.718 235.697 628.685 237.571C630.497 239.296 631.535 241.649 631.535 244.025C631.535 250.104 626.493 254.822 622.154 254.822C619.725 254.822 618.104 253.109 615.981 250.889C613.725 248.536 611.192 246.309 608.503 246.309C605.613 246.309 602.266 252.319 599.208 256.905L598.885 257.383V300.411C598.885 307.291 600.507 313.157 603.38 316.779H578.023Z" fill="white"/>
<path d="M504.554 205.145H426.509L423.371 225.154C432.013 209.783 441.527 207.712 458.305 207.718H483.299L419.384 317.316H497.428L500.538 297.896C491.93 312.679 482.375 314.767 465.603 314.761H440.616L504.554 205.145Z" fill="white"/>
<path d="M392.966 316.796C381.929 316.796 371.579 312.505 363.813 304.713C356.064 296.944 351.795 286.614 351.795 275.632C351.795 252.936 370.263 234.473 392.966 234.473C399.959 234.473 407.488 236.884 413.113 240.899C417.521 244.048 422.812 249.591 422.951 258.127V258.479C422.951 264.535 420.158 268.03 413.915 269.83C413.16 270.049 412.329 270.251 411.452 270.429C409.346 270.856 407.079 271.145 404.892 271.427L404.736 271.445C403.242 271.635 401.696 271.825 400.236 272.067C396.93 272.667 393.63 273.307 390.439 273.936L389.96 274.028C387.358 274.536 384.906 275.015 382.691 275.418C381.837 275.597 381.081 275.788 380.366 276.013C377.008 276.912 373.95 278.297 371.55 280.01C370.419 280.823 369.473 281.665 368.728 282.519L368.48 282.801L368.636 283.141C368.907 283.73 369.202 284.318 369.502 284.901C369.813 285.5 370.125 286.095 370.454 286.677C372.317 290.04 374.458 293.148 376.823 295.911L376.95 296.055L377.094 296.09C377.648 296.788 378.237 297.486 378.854 298.161C379.131 298.466 379.414 298.766 379.702 299.06C380.671 300.052 381.687 300.993 382.72 301.852C389.187 307.204 396.491 310.031 403.853 310.031C408.867 310.031 413.858 308.727 418.687 306.149C418.739 306.12 418.796 306.109 418.871 306.109C419.004 306.109 419.143 306.172 419.235 306.282C419.304 306.368 419.339 306.489 419.327 306.622C419.316 306.731 419.252 306.841 419.154 306.928C411.763 313.007 401.724 316.79 392.966 316.79V316.796ZM375.727 242.018C374.613 242.358 373.54 242.802 372.542 243.333C369.415 245.086 367.015 247.745 365.382 251.229C363.749 254.718 363.005 258.825 363.172 263.427C363.172 263.52 363.172 263.641 363.184 263.762C363.23 264.789 363.322 265.856 363.461 266.911C363.94 270.383 364.649 272.95 365.607 275.984C366.023 277.328 366.501 278.666 367.055 280.061L367.448 281.054C367.448 281.054 371.123 276.434 379.137 273.267C379.218 273.232 381.491 272.402 381.491 272.402C383.602 271.693 392.464 269.858 392.464 269.858C399.595 268.463 404.044 265.198 404.99 260.676C405.244 259.476 405.238 258.213 404.978 256.933C404.188 252.919 400.917 248.76 396.007 245.524C391.72 242.773 386.701 241.233 381.871 241.187H381.641C379.587 241.187 377.625 241.458 375.808 241.995L375.756 242.006L375.721 242.023L375.727 242.018Z" fill="white"/>
<path d="M542.838 316.796C531.801 316.796 521.45 312.505 513.684 304.713C505.936 296.944 501.667 286.614 501.667 275.632C501.667 252.936 520.135 234.473 542.838 234.473C549.831 234.473 557.36 236.884 562.985 240.899C567.393 244.048 572.684 249.591 572.822 258.127V258.479C572.822 264.535 570.03 268.03 563.787 269.83C563.031 270.049 562.2 270.251 561.323 270.429C559.218 270.856 556.95 271.145 554.764 271.427L554.608 271.445C553.113 271.635 551.567 271.825 550.107 272.067C546.802 272.667 543.501 273.307 540.311 273.936L539.832 274.028C537.23 274.536 534.778 275.015 532.562 275.418C531.708 275.597 530.953 275.788 530.237 276.013C526.879 276.912 523.822 278.297 521.421 280.01C520.291 280.823 519.344 281.665 518.6 282.519L518.352 282.801L518.508 283.141C518.779 283.73 519.073 284.318 519.373 284.901C519.685 285.5 519.996 286.095 520.325 286.677C522.189 290.04 524.329 293.148 526.695 295.911L526.822 296.055L526.966 296.09C527.52 296.788 528.108 297.486 528.726 298.161C529.003 298.466 529.285 298.766 529.574 299.06C530.543 300.052 531.558 300.993 532.591 301.852C539.059 307.204 546.363 310.031 553.725 310.031C558.739 310.031 563.729 308.727 568.558 306.149C568.61 306.12 568.668 306.109 568.743 306.109C568.876 306.109 569.014 306.172 569.107 306.282C569.176 306.368 569.21 306.489 569.199 306.622C569.187 306.731 569.124 306.841 569.026 306.928C561.635 313.007 551.596 316.79 542.838 316.79V316.796ZM525.599 240.628C524.485 240.979 523.412 241.441 522.414 241.989C519.287 243.806 516.887 246.557 515.254 250.167C513.621 253.784 512.877 258.035 513.044 262.799C513.044 262.891 513.044 263.024 513.056 263.145C513.102 264.206 513.194 265.313 513.333 266.404C513.811 270.003 514.521 272.656 515.479 275.799C515.894 277.195 516.373 278.573 516.927 280.027L517.319 281.054C517.319 281.054 520.994 276.272 529.008 272.99C529.089 272.956 531.362 272.096 531.362 272.096C533.474 271.358 542.336 269.46 542.336 269.46C549.467 268.013 553.915 264.633 554.862 259.949C555.115 258.709 555.11 257.4 554.85 256.068C554.06 251.909 550.788 247.601 545.878 244.255C541.592 241.406 536.572 239.814 531.743 239.762H531.512C529.458 239.762 527.497 240.045 525.679 240.599L525.627 240.61L525.593 240.628H525.599Z" fill="white"/>
<path d="M389.351 34.4447V17.2225H303.228V137.763H329.076V129.159H346.289V120.541H363.517V111.937H389.351V103.333H397.972V94.7151H389.351V103.319V111.923H363.517V103.319V68.8746H406.579V94.7006V43.0485H389.351V34.4302V34.4447ZM389.365 94.7296H397.972V103.333H389.365V94.7296ZM354.91 120.541H346.289V129.159H311.849V77.4929H320.455V86.1112H329.076V94.7151H337.683V103.333H346.289V111.937H354.91V120.541ZM363.517 60.2707H354.91V68.889H329.076V60.2707H354.91H320.455V34.4447H329.076V25.8408H354.91V34.4447H363.517V60.2707Z" fill="#F2F2F2"/>
<path d="M346.289 34.4447H329.076V51.6669H346.289V34.4447Z" fill="#29F91E"/>
<path d="M354.896 34.4444H354.91V25.8405H329.076V34.4444H346.289V51.6666H329.076H329.062V34.4444H329.076H320.455V60.2704H354.91H354.896V34.4444Z" fill="#087903"/>
<path d="M389.351 77.4928H372.124V94.715H389.351V77.4928Z" fill="#7C0404"/>
<path d="M363.517 103.333H366.748H389.351V94.715H372.124V77.4928H389.351V94.715H397.972V68.8889H363.517V103.333Z" fill="#E80000"/>
<path d="M337.668 111.937V103.333H329.076H329.062V94.7149H320.441V86.111H311.849V120.541H346.289V111.937H337.668Z" fill="#0919D8"/>
<path d="M320.457 86.1114V77.493H311.85V86.1114H320.442H320.457Z" fill="#16B5F4"/>
<path d="M346.291 103.334H337.684V111.937H346.291V103.334Z" fill="#16B5F4"/>
<path d="M346.291 111.938V120.541H354.912V111.938H346.291Z" fill="#16B5F4"/>
<path d="M337.67 103.334H337.684V94.7152H329.078V103.334H337.67Z" fill="#16B5F4"/>
<path d="M329.078 86.1113H320.457V94.7152H329.078V86.1113Z" fill="#16B5F4"/>
<path d="M415.186 17.2227H406.579V25.841H415.186V17.2227Z" fill="#BABABA"/>
<path d="M423.807 25.8408H415.186V34.4447H423.807V25.8408Z" fill="#BABABA"/>
<path d="M389.351 34.4447H397.972V17.2225H406.579V8.6186H397.972V0.000244141H389.351V17.2225V34.4447Z" fill="#BABABA"/>
<path d="M346.289 120.541H311.848V129.16H346.289V120.541Z" fill="#747474"/>
<path d="M423.806 34.4448H389.351V43.0487H406.578V43.0632H415.185V68.8892H423.806V34.4448Z" fill="#747474"/>
<path d="M415.185 146.382H363.517V155H423.806V154.464V146.382V103.334H415.185V146.382Z" fill="#747474"/>
<path d="M294.621 8.6186H389.351V0.000244141H286V0.0147429V154.986V155H311.834V146.382H294.621V8.6186Z" fill="#747474"/>
<path d="M397.97 68.889V94.7151H406.577V68.889H397.97Z" fill="#747474"/>
<path d="M363.517 103.334V111.938H389.351V103.334H366.748H363.517Z" fill="#747474"/>
<path d="M397.972 94.7296H389.365V103.333H397.972V94.7296Z" fill="#747474"/>
<path d="M329.061 68.8894H354.91V60.271H329.061V68.8894Z" fill="#747474"/>
<path d="M363.517 34.4448H354.91V60.2709H363.517V34.4448Z" fill="#747474"/>
<path d="M397.972 111.937V129.159H372.124V137.763H406.579V111.937H397.972Z" fill="#747474"/>
</svg>
