<svg width="711" height="318" viewBox="0 0 711 318" fill="none" xmlns="http://www.w3.org/2000/svg">
<path d="M235.408 316.774C232.922 316.774 229.368 316.175 226.593 313.331C223.939 310.603 222.589 306.444 222.589 300.977V298.629C222.589 298.629 214.754 316.774 197.399 316.774C186.667 316.774 179.173 308.902 179.173 297.626V257.788C179.173 250.936 177.442 244.914 174.494 241.344C181.51 240.883 188.975 238.737 195.31 235.363V294.476C195.31 298.266 196.516 301.478 198.812 303.768C200.889 305.845 203.699 306.992 206.711 306.992C211.251 306.992 215.411 304.558 218.117 300.319C220.956 295.895 222.583 289.355 222.583 282.376V257.8C222.583 250.757 220.956 244.857 218.083 241.338C225.104 240.877 232.576 238.731 238.911 235.357V297.083C238.911 306.646 243.313 309.103 246.428 309.64C244.888 313.049 241.749 316.78 235.408 316.78V316.774Z" fill="black"/>
<path d="M287.398 316.768C283.971 316.768 278.744 315.286 274.688 313.169C272.426 312.01 269.224 310.989 265.607 310.989C259.757 310.989 255.539 313.757 251.633 315.915V228.989C251.639 221.929 249.966 216.029 247.017 212.528C254.097 212.072 261.395 209.967 267.794 206.541V250.549C267.794 250.549 276.338 234.445 293.006 234.445C299.318 234.445 304.615 236.481 309.196 240.669C316.194 247.198 320.371 259.287 320.371 272.997C320.556 285.149 316.956 297.141 310.736 305.089C304.869 312.725 296.803 316.762 287.41 316.762L287.398 316.768ZM284.387 242.376C284.219 242.376 284.052 242.376 283.879 242.382C275.755 242.589 267.782 252.643 267.782 262.344V292.63C267.782 303.335 276.084 314.744 289.1 314.744C289.822 314.744 290.56 314.686 291.281 314.571C297.091 313.677 301.263 309.374 303.686 301.778C305.734 295.041 306.317 285.063 305.284 274.404C304.338 267.073 302.261 256.957 297.726 250.278C294.339 245.104 289.723 242.365 284.387 242.365V242.376Z" fill="black"/>
<path d="M669.267 316.804C662.066 316.804 654.964 314.877 648.716 311.238C639.173 305.816 632.347 296.997 629.497 286.402C626.636 275.783 628.118 264.704 633.657 255.21C641.008 242.492 654.647 234.59 669.255 234.59C676.45 234.59 683.587 236.517 689.893 240.162C709.475 251.403 716.225 276.539 704.945 296.195C697.601 308.913 683.933 316.809 669.272 316.809L669.267 316.804ZM657.128 239.349C654.289 239.349 651.698 240.012 649.425 241.327C638.255 247.781 638.065 268.476 648.998 287.457C657.468 302.159 670.519 312.045 681.475 312.045C684.314 312.045 686.904 311.382 689.177 310.067C700.336 303.601 700.526 282.912 689.604 263.937C681.129 249.229 668.078 239.349 657.128 239.349Z" fill="black"/>
<path d="M0 316.758C2.98285 313.089 4.66755 307.218 4.67332 300.389L4.67332 222.092C4.67332 215.252 2.98862 209.38 0.00577516 205.712C13.8353 205.712 30.3593 205.712 43.6061 205.729C57.0376 205.729 68.0285 211.133 75.3962 221.354C82.3889 231.055 86.0814 244.852 86.0814 261.243C86.0814 277.635 82.3831 291.432 75.3904 301.133C68.0227 311.353 57.0318 316.752 43.6061 316.752H0L0 316.758ZM21.9531 315.322H34.8537C45.8966 315.322 54.4009 310.754 60.13 301.744C65.8938 292.677 68.8189 279.048 68.8189 261.238C68.8189 243.421 65.8996 229.792 60.1358 220.731C54.4067 211.722 45.9024 207.148 34.8537 207.148H21.9531L21.9473 315.327L21.9531 315.322Z" fill="black"/>
<path d="M131.112 316.769C123.912 316.769 116.81 314.842 110.561 311.203C101.018 305.776 94.193 296.957 91.3428 286.361C88.4869 275.743 89.9639 264.669 95.5026 255.175C102.853 242.457 116.492 234.556 131.101 234.556C138.295 234.556 145.426 236.482 151.738 240.127C171.32 251.369 178.07 276.504 166.791 296.161C159.446 308.879 145.778 316.775 131.118 316.775L131.112 316.769ZM118.973 239.314C116.134 239.314 113.544 239.977 111.271 241.292C100.107 247.746 99.9105 268.441 110.844 287.423C119.308 302.125 132.364 312.01 143.32 312.01C146.159 312.01 148.75 311.347 151.023 310.032C162.181 303.566 162.371 282.878 151.45 263.902C142.974 249.194 129.924 239.314 118.973 239.314Z" fill="black"/>
<path d="M340.573 316.768C336.956 316.768 333.915 315.58 331.78 313.33C329.224 310.631 327.926 306.473 327.926 300.959V229.595L327.938 229.029C327.938 222.166 326.201 216.139 323.247 212.563C330.349 212.113 337.671 210.013 344.087 206.57V297.054C344.081 301.045 344.9 304.183 346.516 306.38C347.814 308.145 349.625 309.258 351.783 309.622C350.231 313.031 347.052 316.768 340.561 316.768H340.573Z" fill="black"/>
<path d="M578.023 316.779C580.728 313.365 582.338 307.932 582.511 301.564L582.523 300.993V300.416L582.534 257.724C582.534 250.687 580.907 244.787 578.028 241.263C585.056 240.801 592.539 238.65 598.879 235.27V253.836L601.031 250.133C606.87 240.086 614.296 234.664 620.902 234.664C623.948 234.664 626.717 235.697 628.685 237.571C630.496 239.296 631.535 241.649 631.535 244.025C631.535 250.104 626.492 254.822 622.154 254.822C619.725 254.822 618.104 253.109 615.98 250.889C613.724 248.536 611.192 246.309 608.503 246.309C605.613 246.309 602.266 252.319 599.208 256.905L598.885 257.383V300.411C598.885 307.291 600.506 313.157 603.38 316.779H578.023Z" fill="black"/>
<path d="M504.553 205.145H426.509L423.37 225.154C432.013 209.783 441.527 207.712 458.305 207.718H483.298L419.384 317.316H497.428L500.538 297.896C491.93 312.679 482.375 314.767 465.603 314.761H440.615L504.553 205.145Z" fill="black"/>
<path d="M392.966 316.796C381.929 316.796 371.578 312.505 363.813 304.713C356.064 296.944 351.795 286.614 351.795 275.632C351.795 252.936 370.263 234.473 392.966 234.473C399.959 234.473 407.488 236.884 413.113 240.899C417.521 244.048 422.812 249.591 422.95 258.127V258.479C422.95 264.535 420.158 268.03 413.915 269.83C413.159 270.049 412.329 270.251 411.452 270.429C409.346 270.856 407.078 271.145 404.892 271.427L404.736 271.445C403.242 271.635 401.695 271.825 400.236 272.067C396.93 272.667 393.63 273.307 390.439 273.936L389.96 274.028C387.358 274.536 384.906 275.015 382.691 275.418C381.837 275.597 381.081 275.788 380.365 276.013C377.008 276.912 373.95 278.297 371.55 280.01C370.419 280.823 369.473 281.665 368.728 282.519L368.48 282.801L368.636 283.141C368.907 283.73 369.201 284.318 369.501 284.901C369.813 285.5 370.124 286.095 370.453 286.677C372.317 290.04 374.457 293.148 376.823 295.911L376.95 296.055L377.094 296.09C377.648 296.788 378.236 297.486 378.854 298.161C379.131 298.466 379.413 298.766 379.702 299.06C380.671 300.052 381.687 300.993 382.719 301.852C389.187 307.204 396.491 310.031 403.853 310.031C408.867 310.031 413.857 308.727 418.687 306.149C418.738 306.12 418.796 306.109 418.871 306.109C419.004 306.109 419.142 306.172 419.235 306.282C419.304 306.368 419.339 306.489 419.327 306.622C419.316 306.731 419.252 306.841 419.154 306.928C411.763 313.007 401.724 316.79 392.966 316.79V316.796ZM375.727 242.018C374.613 242.358 373.54 242.802 372.542 243.333C369.415 245.086 367.015 247.745 365.382 251.229C363.749 254.718 363.005 258.825 363.172 263.427C363.172 263.52 363.172 263.641 363.184 263.762C363.23 264.789 363.322 265.856 363.461 266.911C363.94 270.383 364.649 272.95 365.607 275.984C366.022 277.328 366.501 278.666 367.055 280.061L367.447 281.054C367.447 281.054 371.123 276.434 379.136 273.267C379.217 273.232 381.49 272.402 381.49 272.402C383.602 271.693 392.464 269.858 392.464 269.858C399.595 268.463 404.044 265.198 404.99 260.676C405.244 259.476 405.238 258.213 404.978 256.933C404.188 252.919 400.916 248.76 396.007 245.524C391.72 242.773 386.7 241.233 381.871 241.187H381.64C379.586 241.187 377.625 241.458 375.807 241.995L375.756 242.006L375.721 242.023L375.727 242.018Z" fill="black"/>
<path d="M542.838 316.796C531.8 316.796 521.45 312.505 513.684 304.713C505.936 296.944 501.666 286.614 501.666 275.632C501.666 252.936 520.134 234.473 542.838 234.473C549.83 234.473 557.359 236.884 562.985 240.899C567.393 244.048 572.683 249.591 572.822 258.127V258.479C572.822 264.535 570.029 268.03 563.787 269.83C563.031 270.049 562.2 270.251 561.323 270.429C559.217 270.856 556.95 271.145 554.763 271.427L554.607 271.445C553.113 271.635 551.567 271.825 550.107 272.067C546.801 272.667 543.501 273.307 540.31 273.936L539.832 274.028C537.23 274.536 534.777 275.015 532.562 275.418C531.708 275.597 530.952 275.788 530.237 276.013C526.879 276.912 523.821 278.297 521.421 280.01C520.29 280.823 519.344 281.665 518.6 282.519L518.352 282.801L518.507 283.141C518.779 283.73 519.073 284.318 519.373 284.901C519.684 285.5 519.996 286.095 520.325 286.677C522.188 290.04 524.329 293.148 526.694 295.911L526.821 296.055L526.966 296.09C527.519 296.788 528.108 297.486 528.725 298.161C529.002 298.466 529.285 298.766 529.573 299.06C530.543 300.052 531.558 300.993 532.591 301.852C539.059 307.204 546.363 310.031 553.725 310.031C558.738 310.031 563.729 308.727 568.558 306.149C568.61 306.12 568.668 306.109 568.743 306.109C568.875 306.109 569.014 306.172 569.106 306.282C569.175 306.368 569.21 306.489 569.198 306.622C569.187 306.731 569.124 306.841 569.025 306.928C561.635 313.007 551.596 316.79 542.838 316.79V316.796ZM525.598 240.628C524.485 240.979 523.412 241.441 522.413 241.989C519.286 243.806 516.886 246.557 515.253 250.167C513.621 253.784 512.876 258.035 513.044 262.799C513.044 262.891 513.044 263.024 513.055 263.145C513.101 264.206 513.194 265.313 513.332 266.404C513.811 270.003 514.521 272.656 515.478 275.799C515.894 277.195 516.373 278.573 516.927 280.027L517.319 281.054C517.319 281.054 520.994 276.272 529.008 272.99C529.089 272.956 531.362 272.096 531.362 272.096C533.474 271.358 542.336 269.46 542.336 269.46C549.467 268.013 553.915 264.633 554.861 259.949C555.115 258.709 555.109 257.4 554.85 256.068C554.059 251.909 550.788 247.601 545.878 244.255C541.591 241.406 536.572 239.814 531.743 239.762H531.512C529.458 239.762 527.496 240.045 525.679 240.599L525.627 240.61L525.592 240.628H525.598Z" fill="black"/>
<path d="M389.353 34.4454V17.2231H303.229V137.764H329.078V129.16H346.291V120.542H363.519V111.938H389.353V103.334H397.974V94.7159H389.353V103.32V111.924H363.519V103.32V68.8753H406.581V94.7014V43.0492H389.353V34.4309V34.4454ZM389.367 94.7304H397.974V103.334H389.367V94.7304ZM354.912 120.542H346.291V129.16H311.85V77.4937H320.457V86.112H329.078V94.7159H337.685V103.334H346.291V111.938H354.912V120.542ZM363.519 60.2714H354.912V68.8898H329.078V60.2714H354.912H320.457V34.4454H329.078V25.8415H354.912V34.4454H363.519V60.2714Z" fill="#D7D7D7"/>
<path d="M346.291 34.4454H329.078V51.6677H346.291V34.4454Z" fill="#29F91E"/>
<path d="M354.894 34.4458H354.909V25.8419H329.074V34.4458H346.287V51.668H329.074H329.06V34.4458H329.074H320.453V60.2719H354.909H354.894V34.4458Z" fill="#087903"/>
<path d="M389.353 77.4931H372.125V94.7153H389.353V77.4931Z" fill="#7C0404"/>
<path d="M363.519 103.334H366.75H389.353V94.7153H372.125V77.4931H389.353V94.7153H397.974V68.8892H363.519V103.334Z" fill="#E80000"/>
<path d="M337.674 111.938V103.334H329.082H329.067V94.7156H320.446V86.1117H311.854V120.542H346.295V111.938H337.674Z" fill="#0919D8"/>
<path d="M320.459 86.1118V77.4934H311.853V86.1118H320.445H320.459Z" fill="#16B5F4"/>
<path d="M346.292 103.333H337.685V111.937H346.292V103.333Z" fill="#16B5F4"/>
<path d="M346.295 111.937V120.541H354.916V111.937H346.295Z" fill="#16B5F4"/>
<path d="M337.671 103.333H337.685V94.7145H329.078V103.333H337.671Z" fill="#16B5F4"/>
<path d="M329.082 86.111H320.461V94.7148H329.082V86.111Z" fill="#16B5F4"/>
<path d="M415.186 17.2232H406.579V25.8416H415.186V17.2232Z" fill="#9E9E9E"/>
<path d="M423.807 25.8419H415.186V34.4458H423.807V25.8419Z" fill="#9E9E9E"/>
<path d="M389.352 34.4452H397.973V17.223H406.579V8.61914H397.973V0.000793457H389.352V17.223V34.4452Z" fill="#9E9E9E"/>
<path d="M346.291 120.542H311.85V129.16H346.291V120.542Z" fill="black"/>
<path d="M423.81 34.4454H389.354V43.0493H406.582V43.0638H415.189V68.8899H423.81V34.4454Z" fill="black"/>
<path d="M415.189 146.382H363.52V155.001H423.81V154.465V146.382V103.334H415.189V146.382Z" fill="black"/>
<path d="M294.621 8.61908H389.351V0.000732422H286V0.0152091V154.986V155.001H311.834V146.382H294.621V8.61908Z" fill="black"/>
<path d="M397.973 68.8892V94.7298V94.7153L406.58 94.7298V68.8892H397.973Z" fill="black"/>
<path d="M363.52 103.334V111.938H389.354V103.334H366.751H363.52Z" fill="black"/>
<path d="M397.974 94.7303H389.367V103.334H397.974V94.7303Z" fill="black"/>
<path d="M329.062 68.8898H354.91V60.2715H329.062V68.8898Z" fill="black"/>
<path d="M363.518 34.4454H354.912V60.2715H363.518V34.4454Z" fill="black"/>
<path d="M397.921 112.317V129.399H372.282V137.933H406.457V112.317H397.921Z" fill="black"/>
</svg>
